# Blender v2.79 (sub 0) OBJ File: ''
# www.blender.org
mtllib Ramp.mtl
o Cube
v 1.751301 -0.721804 -1.171385
v 1.751301 -0.721804 0.828615
v -1.000000 -1.000000 1.000000
v -1.000000 -1.000000 -1.000000
v 0.323021 -0.152844 -0.837559
v 0.323020 -0.152845 0.801628
v -0.941758 0.142740 0.828615
v -0.941757 0.142740 -1.171385
vn 0.1006 -0.9949 0.0000
vn 0.2276 0.9738 0.0000
vn 0.3701 0.9290 0.0000
vn 0.0494 0.1539 0.9868
vn -0.9987 0.0509 -0.0000
vn 0.0406 0.1266 -0.9911
usemtl Material
s off
f 1//1 2//1 3//1 4//1
f 5//2 8//2 7//2 6//2
f 1//3 5//3 6//3 2//3
f 2//4 6//4 7//4 3//4
f 3//5 7//5 8//5 4//5
f 5//6 1//6 4//6 8//6
